<mxfile host="Electron" modified="2024-02-12T23:29:54.136Z" agent="Mozilla/5.0 (Windows NT 10.0; Win64; x64) AppleWebKit/537.36 (KHTML, like Gecko) draw.io/22.1.16 Chrome/120.0.6099.109 Electron/28.1.0 Safari/537.36" etag="xAuGT-Hb4W7fKhKNX7GB" version="22.1.16" type="device">
  <diagram name="Page-1" id="xeDn6931WHnKC_bZtVCI">
    <mxGraphModel dx="903" dy="987" grid="1" gridSize="10" guides="1" tooltips="1" connect="1" arrows="1" fold="1" page="1" pageScale="1" pageWidth="850" pageHeight="1100" math="0" shadow="0">
      <root>
        <mxCell id="0" />
        <mxCell id="1" parent="0" />
        <mxCell id="GwYX2wR1JLfEcEVyVq5p-1" value="sa-east-1" style="points=[[0,0],[0.25,0],[0.5,0],[0.75,0],[1,0],[1,0.25],[1,0.5],[1,0.75],[1,1],[0.75,1],[0.5,1],[0.25,1],[0,1],[0,0.75],[0,0.5],[0,0.25]];outlineConnect=0;gradientColor=none;html=1;whiteSpace=wrap;fontSize=12;fontStyle=0;container=1;pointerEvents=0;collapsible=0;recursiveResize=0;shape=mxgraph.aws4.group;grIcon=mxgraph.aws4.group_region;strokeColor=#00A4A6;fillColor=none;verticalAlign=top;align=left;spacingLeft=30;fontColor=#147EBA;dashed=1;" vertex="1" parent="1">
          <mxGeometry x="250" y="450" width="500" height="290" as="geometry" />
        </mxCell>
        <mxCell id="GwYX2wR1JLfEcEVyVq5p-2" value="sa-east-1a" style="rounded=0;whiteSpace=wrap;html=1;dashed=1;fillColor=none;strokeColor=#00A4A6;labelPosition=center;verticalLabelPosition=middle;align=center;verticalAlign=top;fontStyle=1;fontColor=#00A4A6;fontSize=14;" vertex="1" parent="GwYX2wR1JLfEcEVyVq5p-1">
          <mxGeometry x="20" y="40" width="100" height="230" as="geometry" />
        </mxCell>
        <mxCell id="GwYX2wR1JLfEcEVyVq5p-5" style="edgeStyle=orthogonalEdgeStyle;rounded=0;orthogonalLoop=1;jettySize=auto;html=1;endArrow=none;endFill=0;" edge="1" parent="GwYX2wR1JLfEcEVyVq5p-1" source="GwYX2wR1JLfEcEVyVq5p-3" target="GwYX2wR1JLfEcEVyVq5p-4">
          <mxGeometry relative="1" as="geometry" />
        </mxCell>
        <mxCell id="GwYX2wR1JLfEcEVyVq5p-12" value="&amp;nbsp;create image&amp;nbsp;" style="edgeStyle=orthogonalEdgeStyle;rounded=0;orthogonalLoop=1;jettySize=auto;html=1;" edge="1" parent="GwYX2wR1JLfEcEVyVq5p-1" source="GwYX2wR1JLfEcEVyVq5p-3" target="GwYX2wR1JLfEcEVyVq5p-10">
          <mxGeometry relative="1" as="geometry" />
        </mxCell>
        <mxCell id="GwYX2wR1JLfEcEVyVq5p-3" value="EC2 Instance" style="sketch=0;outlineConnect=0;fontColor=#232F3E;gradientColor=none;fillColor=#ED7100;strokeColor=none;dashed=0;verticalLabelPosition=top;verticalAlign=bottom;align=center;html=1;fontSize=12;fontStyle=0;aspect=fixed;pointerEvents=1;shape=mxgraph.aws4.instance2;labelPosition=center;" vertex="1" parent="GwYX2wR1JLfEcEVyVq5p-1">
          <mxGeometry x="46" y="90" width="48" height="48" as="geometry" />
        </mxCell>
        <mxCell id="GwYX2wR1JLfEcEVyVq5p-4" value="EBS Volume" style="sketch=0;outlineConnect=0;fontColor=#232F3E;gradientColor=none;fillColor=#7AA116;strokeColor=none;dashed=0;verticalLabelPosition=bottom;verticalAlign=top;align=center;html=1;fontSize=12;fontStyle=0;aspect=fixed;pointerEvents=1;shape=mxgraph.aws4.volume;" vertex="1" parent="GwYX2wR1JLfEcEVyVq5p-1">
          <mxGeometry x="50.13" y="190" width="39.74" height="50" as="geometry" />
        </mxCell>
        <mxCell id="GwYX2wR1JLfEcEVyVq5p-6" value="sa-east-1b" style="rounded=0;whiteSpace=wrap;html=1;dashed=1;fillColor=none;strokeColor=#00A4A6;labelPosition=center;verticalLabelPosition=middle;align=center;verticalAlign=top;fontStyle=1;fontColor=#00A4A6;fontSize=14;" vertex="1" parent="GwYX2wR1JLfEcEVyVq5p-1">
          <mxGeometry x="380" y="40" width="100" height="230" as="geometry" />
        </mxCell>
        <mxCell id="GwYX2wR1JLfEcEVyVq5p-8" value="EC2 Instance" style="sketch=0;outlineConnect=0;fontColor=#232F3E;gradientColor=none;fillColor=#ED7100;strokeColor=none;dashed=0;verticalLabelPosition=top;verticalAlign=bottom;align=center;html=1;fontSize=12;fontStyle=0;aspect=fixed;pointerEvents=1;shape=mxgraph.aws4.instance2;labelPosition=center;" vertex="1" parent="GwYX2wR1JLfEcEVyVq5p-1">
          <mxGeometry x="406" y="90" width="48" height="48" as="geometry" />
        </mxCell>
        <mxCell id="GwYX2wR1JLfEcEVyVq5p-9" value="EBS Volume" style="sketch=0;outlineConnect=0;fontColor=#232F3E;gradientColor=none;fillColor=#7AA116;strokeColor=none;dashed=0;verticalLabelPosition=bottom;verticalAlign=top;align=center;html=1;fontSize=12;fontStyle=0;aspect=fixed;pointerEvents=1;shape=mxgraph.aws4.volume;" vertex="1" parent="GwYX2wR1JLfEcEVyVq5p-1">
          <mxGeometry x="410.13" y="190" width="39.74" height="50" as="geometry" />
        </mxCell>
        <mxCell id="GwYX2wR1JLfEcEVyVq5p-7" style="edgeStyle=orthogonalEdgeStyle;rounded=0;orthogonalLoop=1;jettySize=auto;html=1;endArrow=none;endFill=0;" edge="1" parent="GwYX2wR1JLfEcEVyVq5p-1" source="GwYX2wR1JLfEcEVyVq5p-8" target="GwYX2wR1JLfEcEVyVq5p-9">
          <mxGeometry relative="1" as="geometry" />
        </mxCell>
        <mxCell id="GwYX2wR1JLfEcEVyVq5p-11" value="&amp;nbsp;launch/restore&amp;nbsp;" style="edgeStyle=orthogonalEdgeStyle;rounded=0;orthogonalLoop=1;jettySize=auto;html=1;" edge="1" parent="GwYX2wR1JLfEcEVyVq5p-1" source="GwYX2wR1JLfEcEVyVq5p-10" target="GwYX2wR1JLfEcEVyVq5p-8">
          <mxGeometry relative="1" as="geometry" />
        </mxCell>
        <mxCell id="GwYX2wR1JLfEcEVyVq5p-10" value="AMI" style="sketch=0;outlineConnect=0;fontColor=#232F3E;gradientColor=none;fillColor=#ED7100;strokeColor=none;dashed=0;verticalLabelPosition=bottom;verticalAlign=top;align=center;html=1;fontSize=12;fontStyle=0;aspect=fixed;pointerEvents=1;shape=mxgraph.aws4.ami;" vertex="1" parent="GwYX2wR1JLfEcEVyVq5p-1">
          <mxGeometry x="220" y="90" width="48" height="48" as="geometry" />
        </mxCell>
      </root>
    </mxGraphModel>
  </diagram>
</mxfile>
